<?xml version="1.0" encoding="UTF-8" standalone="no"?>
<svg
   xmlns:dc="http://purl.org/dc/elements/1.1/"
   xmlns:cc="http://creativecommons.org/ns#"
   xmlns:rdf="http://www.w3.org/1999/02/22-rdf-syntax-ns#"
   xmlns:svg="http://www.w3.org/2000/svg"
   xmlns="http://www.w3.org/2000/svg"
   xmlns:sodipodi="http://sodipodi.sourceforge.net/DTD/sodipodi-0.dtd"
   xmlns:inkscape="http://www.inkscape.org/namespaces/inkscape"
   width="150"
   height="150"
   viewBox="0 0 39.687498 39.687501"
   version="1.1"
   id="svg8"
   inkscape:version="1.0.2-2 (e86c870879, 2021-01-15)"
   sodipodi:docname="logo_white.svg">
  <defs
     id="defs2">
    <inkscape:path-effect
       effect="spiro"
       id="path-effect899"
       is_visible="true"
       lpeversion="1" />
  </defs>
  <sodipodi:namedview
     id="base"
     pagecolor="#ffffff"
     bordercolor="#666666"
     borderopacity="1.0"
     inkscape:pageopacity="0.0"
     inkscape:pageshadow="2"
     inkscape:zoom="4"
     inkscape:cx="55.447221"
     inkscape:cy="93.080379"
     inkscape:document-units="mm"
     inkscape:current-layer="layer1"
     inkscape:document-rotation="0"
     showgrid="false"
     units="px"
     inkscape:window-width="1920"
     inkscape:window-height="1018"
     inkscape:window-x="-6"
     inkscape:window-y="-6"
     inkscape:window-maximized="1" />
  <metadata
     id="metadata5">
    <rdf:RDF>
      <cc:Work
         rdf:about="">
        <dc:format>image/svg+xml</dc:format>
        <dc:type
           rdf:resource="http://purl.org/dc/dcmitype/StillImage" />
        <dc:title></dc:title>
      </cc:Work>
    </rdf:RDF>
  </metadata>
  <g
     inkscape:label="Layer 1"
     inkscape:groupmode="layer"
     id="layer1">
    <path
       id="path24"
       style="fill:#ffffff;fill-opacity:1;stroke:none;stroke-width:7.24887;stroke-miterlimit:4;stroke-dasharray:none;stroke-opacity:1"
       d="M 75 0 A 74.999994 74.999994 0 0 0 0 75 A 74.999994 74.999994 0 0 0 75 150 A 74.999994 74.999994 0 0 0 150 75 A 74.999994 74.999994 0 0 0 75 0 z M 75 15 C 82.828951 15 89.232422 21.40347 89.232422 29.232422 C 89.232422 35.868673 84.625204 41.459415 78.455078 43.013672 C 78.466285 44.378479 78.479102 45.778022 78.511719 47.355469 L 81.03125 47.355469 L 81.03125 46.691406 A 1.4623359 1.4623359 0 0 1 82.492188 45.228516 L 84.728516 45.228516 A 1.4623359 1.4623359 0 0 1 86.191406 46.691406 L 86.191406 47.355469 L 87.054688 47.355469 A 3.4999937 3.4999937 0 0 1 90.552734 50.861328 A 3.4999937 3.4999937 0 0 1 87.054688 54.359375 L 86.191406 54.359375 L 86.191406 55.083984 A 1.4623359 1.4623359 0 0 1 84.728516 56.544922 L 82.492188 56.544922 A 1.4623359 1.4623359 0 0 1 81.03125 55.083984 L 81.03125 54.359375 L 78.736328 54.359375 C 79.641648 75.709628 83.137132 105.9624 95.820312 104.88672 C 118.32887 102.97772 123.12485 88.499535 129.04688 83.726562 C 129.04688 83.726562 134.72998 109.0558 92.826172 121.85742 C 79.816437 125.8319 75 136.5 75 136.5 C 75 136.5 70.183563 125.8319 57.173828 121.85742 C 15.270031 109.0558 20.953125 83.726562 20.953125 83.726562 C 26.875144 88.499535 31.671134 102.97772 54.179688 104.88672 C 66.862867 105.9624 70.358352 75.709628 71.263672 54.359375 L 68.769531 54.359375 L 68.769531 55.083984 A 1.4623359 1.4623359 0 0 1 67.308594 56.544922 L 65.072266 56.544922 A 1.4623359 1.4623359 0 0 1 63.609375 55.083984 L 63.609375 54.359375 L 62.945312 54.359375 A 3.4999937 3.4999937 0 0 1 59.447266 50.861328 A 3.4999937 3.4999937 0 0 1 62.945312 47.355469 L 63.609375 47.355469 L 63.609375 46.691406 A 1.4623359 1.4623359 0 0 1 65.072266 45.228516 L 67.308594 45.228516 A 1.4623359 1.4623359 0 0 1 68.769531 46.691406 L 68.769531 47.355469 L 71.488281 47.355469 C 71.520898 45.778022 71.533715 44.378479 71.544922 43.013672 C 65.374796 41.459415 60.767578 35.868673 60.767578 29.232422 C 60.767578 21.40347 67.171049 15 75 15 z M 75 19.998047 C 69.873249 19.998047 65.773438 24.10567 65.773438 29.232422 C 65.773438 33.137938 68.154488 36.441538 71.554688 37.796875 C 71.537579 35.356346 71.5 33.90625 71.5 33.90625 L 71.511719 33.90625 A 3.5 3.5 0 0 1 71.5 33.632812 A 3.5 3.5 0 0 1 75 30.132812 A 3.5 3.5 0 0 1 78.5 33.632812 A 3.5 3.5 0 0 1 78.488281 33.90625 L 78.5 33.90625 C 78.5 33.90625 78.462421 35.356346 78.445312 37.796875 C 81.845512 36.441538 84.226562 33.137938 84.226562 29.232422 C 84.226563 24.10567 80.126751 19.998047 75 19.998047 z "
       transform="scale(0.26458333)" />
  </g>
  <g
     inkscape:groupmode="layer"
     id="layer2"
     inkscape:label="Layer 2">
    <path
       style="fill:none;stroke:none;stroke-width:0.264583px;stroke-linecap:butt;stroke-linejoin:miter;stroke-opacity:1"
       d="m 18.917708,8.9710285 c 0,0 0.661458,18.7440755 -3.96875,17.9833985 -4.630208,-0.760677 -7.8052081,-4.167188 -7.8052081,-4.167188 0,0 0.9260417,3.604948 4.9278641,6.482292 4.001823,2.877344 7.176823,5.126302 7.772136,6.846094"
       id="path1126" />
  </g>
  <g
     inkscape:groupmode="layer"
     id="layer3"
     inkscape:label="Layer 3">
    <path
       style="fill:none;fill-opacity:1;stroke:none;stroke-width:0.46068;stroke-linecap:square;stroke-linejoin:round;stroke-miterlimit:4;stroke-dasharray:none;stroke-opacity:1"
       d="m 70.335646,142.75252 c -14.932384,-1.3979 -27.410382,-6.37964 -38.331361,-15.3035 -3.46786,-2.83369 -9.506229,-9.21924 -11.972609,-12.66099 C 5.28596,94.210915 3.0324089,67.815482 14.09254,45.224014 19.603074,33.968176 27.398827,25.175735 38.162288,18.076947 46.329074,12.690735 55.630601,9.2419805 66.093006,7.7209948 72.053124,6.8545348 82.341029,7.1815947 88.246431,8.4252681 102.35285,11.396069 114.00798,17.83964 123.90113,28.13706 c 9.52764,9.916969 15.55911,21.775808 18.04111,35.47173 0.87769,4.843187 1.06716,14.6508 0.38249,19.79899 -2.79223,20.99535 -14.52544,38.95715 -32.56788,49.85659 -11.419252,6.89836 -27.007559,10.65026 -39.421204,9.48815 z m 6.111036,-8.24851 c 2.665917,-4.18175 7.11628,-8.2103 11.505455,-10.41496 1.035851,-0.5203 4.217832,-1.75206 7.071068,-2.73723 2.853236,-0.98518 6.778695,-2.49612 8.723235,-3.35763 13.74579,-6.09 22.93691,-15.56407 25.12844,-25.902018 0.52794,-2.490402 0.68654,-8.507615 0.22424,-8.507615 -0.40743,0 -2.80573,2.587084 -5.40794,5.833631 -7.42055,9.257976 -14.8693,13.617442 -25.648962,15.011342 -4.258734,0.55069 -5.627216,0.18595 -8.109058,-2.16127 -5.414964,-5.12125 -9.32822,-20.023349 -10.569673,-40.25046 -0.113381,-1.847316 -0.28974,-4.273576 -0.39191,-5.391689 l -0.185761,-2.032932 h 1.078214 c 0.802581,0 1.078218,0.162688 1.078218,0.636396 0,1.060342 0.758181,1.484924 2.65165,1.484924 1.856262,0 2.651651,-0.425049 2.651651,-1.41702 0,-0.377974 0.493472,-0.680113 1.472479,-0.901562 1.874589,-0.424023 2.930869,-1.773052 2.930869,-3.743172 0,-1.172302 -0.210053,-1.622909 -1.146591,-2.45971 -0.722172,-0.645256 -1.537141,-1.024477 -2.201676,-1.024477 -0.780303,0 -1.055081,-0.165739 -1.055081,-0.636396 0,-1.060342 -0.758181,-1.484924 -2.651651,-1.484924 -1.893469,0 -2.65165,0.424582 -2.65165,1.484924 0,0.466839 -0.273756,0.636396 -1.027483,0.636396 -0.963588,0 -1.042466,-0.108923 -1.268373,-1.751472 -0.284935,-2.071717 -0.151158,-2.363451 1.222058,-2.665061 1.727744,-0.379475 5.204196,-2.864358 6.531789,-4.668764 2.088139,-2.838102 2.803265,-5.099892 2.828487,-8.945926 0.02012,-3.066204 -0.07606,-3.565802 -1.104034,-5.735813 -1.500746,-3.167996 -3.882872,-5.655196 -6.784332,-7.08358 -2.216628,-1.091243 -2.5223,-1.145966 -6.401084,-1.145966 -3.762169,0 -4.230136,0.07696 -6.126579,1.007573 -8.783189,4.310035 -10.87649,15.871707 -4.159541,22.973889 1.54145,1.629857 4.007793,3.200182 6.124432,3.89944 0.49005,0.161892 0.618718,0.611096 0.618718,2.160042 v 1.955638 H 70.15887 c -0.955903,0 -1.237437,-0.144787 -1.237437,-0.636396 0,-1.07097 -0.763502,-1.484924 -2.738805,-1.484924 -1.717736,0 -1.944349,0.09421 -2.482659,1.032163 -0.356004,0.620306 -0.987899,1.111272 -1.583587,1.230409 -0.545162,0.109032 -1.384883,0.591919 -1.866048,1.073084 -1.855317,1.85532 -0.719661,5.551891 1.864422,6.068708 0.597353,0.119473 1.228799,0.609714 1.585213,1.230734 0.53831,0.937948 0.764923,1.032163 2.482659,1.032163 1.975303,0 2.738805,-0.413954 2.738805,-1.484924 0,-0.471403 0.274986,-0.636396 1.06066,-0.636396 1.258689,0 1.24076,-0.187408 0.693399,7.247845 -1.968433,26.738942 -6.925446,41.144976 -14.715634,42.766466 -1.383674,0.28801 -5.927917,-0.3135 -9.564539,-1.26602 -8.026944,-2.10245 -13.716821,-6.07003 -20.273508,-14.136804 -1.517928,-1.867525 -3.274007,-3.909635 -3.902397,-4.538027 -1.029525,-1.029526 -1.176638,-1.08158 -1.487389,-0.5263 -0.467676,0.835691 -0.08848,6.192477 0.636375,8.989767 3.09081,11.927824 14.550214,21.662824 32.880567,27.932724 5.776125,1.97573 9.293239,3.606 11.886819,5.50987 2.359696,1.73217 6.712879,6.45356 7.746199,8.40139 0.479524,0.90391 0.951688,1.64017 1.049247,1.63614 0.09756,-0.004 0.779515,-0.95184 1.51545,-2.10622 z"
       id="path1287"
       transform="scale(0.26458333)" />
  </g>
</svg>
