<?xml version="1.0" encoding="UTF-8" standalone="no"?>
<svg
   xmlns:dc="http://purl.org/dc/elements/1.1/"
   xmlns:cc="http://creativecommons.org/ns#"
   xmlns:rdf="http://www.w3.org/1999/02/22-rdf-syntax-ns#"
   xmlns:svg="http://www.w3.org/2000/svg"
   xmlns="http://www.w3.org/2000/svg"
   xmlns:sodipodi="http://sodipodi.sourceforge.net/DTD/sodipodi-0.dtd"
   xmlns:inkscape="http://www.inkscape.org/namespaces/inkscape"
   width="150"
   height="150"
   viewBox="0 0 39.687498 39.687501"
   version="1.1"
   id="svg8"
   inkscape:version="1.0.2-2 (e86c870879, 2021-01-15)"
   sodipodi:docname="logo_white_alt.svg"
   inkscape:export-filename="F:\Projects\newport\assets\branding\logo_white_alt.png"
   inkscape:export-xdpi="13.34314"
   inkscape:export-ydpi="13.34314">
  <defs
     id="defs2">
    <inkscape:path-effect
       effect="spiro"
       id="path-effect899"
       is_visible="true"
       lpeversion="1" />
  </defs>
  <sodipodi:namedview
     id="base"
     pagecolor="#ff3bff"
     bordercolor="#666666"
     borderopacity="1.0"
     inkscape:pageopacity="0"
     inkscape:pageshadow="2"
     inkscape:zoom="5.6568542"
     inkscape:cx="36.624003"
     inkscape:cy="72.919968"
     inkscape:document-units="mm"
     inkscape:current-layer="layer1"
     inkscape:document-rotation="0"
     showgrid="false"
     units="px"
     inkscape:window-width="2560"
     inkscape:window-height="1377"
     inkscape:window-x="-8"
     inkscape:window-y="-8"
     inkscape:window-maximized="1" />
  <metadata
     id="metadata5">
    <rdf:RDF>
      <cc:Work
         rdf:about="">
        <dc:format>image/svg+xml</dc:format>
        <dc:type
           rdf:resource="http://purl.org/dc/dcmitype/StillImage" />
        <dc:title></dc:title>
      </cc:Work>
    </rdf:RDF>
  </metadata>
  <g
     inkscape:label="Layer 1"
     inkscape:groupmode="layer"
     id="layer1">
    <path
       style="fill:#ffffff;fill-opacity:1;stroke:none;stroke-width:7.24887;stroke-miterlimit:4;stroke-dasharray:none;stroke-opacity:1"
       d="m 75.048828,20.232422 c -5.126748,0 -9.226562,4.107623 -9.226562,9.234375 0,3.905516 2.381051,7.209115 5.78125,8.564453 -0.01701,-2.44053 -0.05469,-3.890625 -0.05469,-3.890625 h 0.01172 a 3.4999999,3.4999999 0 0 1 -0.01172,-0.273437 3.4999999,3.4999999 0 0 1 3.5,-3.5 3.4999999,3.4999999 0 0 1 3.5,3.5 3.4999999,3.4999999 0 0 1 -0.01172,0.273437 h 0.01172 c 0,0 -0.03741,1.450095 -0.05469,3.890625 3.400199,-1.355338 5.78125,-4.658937 5.78125,-8.564453 0,-5.126752 -4.099811,-9.234375 -9.226563,-9.234375 z"
       transform="scale(0.26458333)"
       id="path50" />
    <path
       style="fill:#ffffff;fill-opacity:1;stroke:none;stroke-width:7.24887;stroke-miterlimit:4;stroke-dasharray:none;stroke-opacity:1"
       d="m 75.048828,15.234375 c 7.828951,0 14.232422,6.40347 14.232422,14.232422 0,6.636251 -4.607216,12.226995 -10.777344,13.78125 0.01134,1.364806 0.02417,2.76435 0.05664,4.341797 h 2.519531 v -0.664063 a 1.4623359,1.4623359 0 0 1 1.460938,-1.46289 h 2.236328 a 1.4623359,1.4623359 0 0 1 1.46289,1.46289 v 0.664063 h 0.863282 a 3.4999937,3.4999937 0 0 1 3.498046,3.505859 3.4999937,3.4999937 0 0 1 -3.498046,3.498047 h -0.863282 v 0.724609 a 1.4623359,1.4623359 0 0 1 -1.46289,1.460938 H 82.541016 A 1.4623359,1.4623359 0 0 1 81.080078,55.318359 V 54.59375 h -2.294922 c 0.905318,21.350253 4.400805,51.60302 17.083985,50.52734 22.508559,-1.90899 27.304529,-16.38718 33.226559,-21.160152 0,0 5.68311,25.329232 -36.2207,38.130862 -13.009735,3.97448 -17.826172,14.64258 -17.826172,14.64258 0,0 -4.816437,-10.6681 -17.826172,-14.64258 C 15.318858,109.29017 21.001953,83.960937 21.001953,83.960938 26.923972,88.73391 31.719962,103.2121 54.228516,105.12109 66.911695,106.19677 70.407182,75.944003 71.3125,54.59375 h -2.494141 v 0.724609 a 1.4623359,1.4623359 0 0 1 -1.460937,1.460938 H 65.121094 A 1.4623359,1.4623359 0 0 1 63.658203,55.318359 V 54.59375 h -0.664062 a 3.4999937,3.4999937 0 0 1 -3.498047,-3.498047 3.4999937,3.4999937 0 0 1 3.498047,-3.505859 h 0.664062 v -0.664063 a 1.4623359,1.4623359 0 0 1 1.462891,-1.46289 h 2.236328 a 1.4623359,1.4623359 0 0 1 1.460937,1.46289 v 0.664063 h 2.71875 c 0.0325,-1.577447 0.04542,-2.976991 0.05664,-4.341797 -6.170124,-1.554255 -10.777344,-7.144999 -10.777344,-13.78125 0,-7.828952 6.403475,-14.232422 14.232422,-14.232422 z"
       id="path48"
       transform="scale(0.26458333)" />
  </g>
  <g
     inkscape:groupmode="layer"
     id="layer2"
     inkscape:label="Layer 2">
    <path
       style="fill:none;stroke:none;stroke-width:0.264583px;stroke-linecap:butt;stroke-linejoin:miter;stroke-opacity:1"
       d="m 18.917708,8.9710285 c 0,0 0.661458,18.7440755 -3.96875,17.9833985 -4.630208,-0.760677 -7.8052081,-4.167188 -7.8052081,-4.167188 0,0 0.9260417,3.604948 4.9278641,6.482292 4.001823,2.877344 7.176823,5.126302 7.772136,6.846094"
       id="path1126" />
  </g>
  <g
     inkscape:groupmode="layer"
     id="layer3"
     inkscape:label="Layer 3">
    <path
       style="fill:none;fill-opacity:1;stroke:none;stroke-width:0.46068;stroke-linecap:square;stroke-linejoin:round;stroke-miterlimit:4;stroke-dasharray:none;stroke-opacity:1"
       d="m 70.335646,142.75252 c -14.932384,-1.3979 -27.410382,-6.37964 -38.331361,-15.3035 -3.46786,-2.83369 -9.506229,-9.21924 -11.972609,-12.66099 C 5.28596,94.210915 3.0324089,67.815482 14.09254,45.224014 19.603074,33.968176 27.398827,25.175735 38.162288,18.076947 46.329074,12.690735 55.630601,9.2419805 66.093006,7.7209948 72.053124,6.8545348 82.341029,7.1815947 88.246431,8.4252681 102.35285,11.396069 114.00798,17.83964 123.90113,28.13706 c 9.52764,9.916969 15.55911,21.775808 18.04111,35.47173 0.87769,4.843187 1.06716,14.6508 0.38249,19.79899 -2.79223,20.99535 -14.52544,38.95715 -32.56788,49.85659 -11.419252,6.89836 -27.007559,10.65026 -39.421204,9.48815 z m 6.111036,-8.24851 c 2.665917,-4.18175 7.11628,-8.2103 11.505455,-10.41496 1.035851,-0.5203 4.217832,-1.75206 7.071068,-2.73723 2.853236,-0.98518 6.778695,-2.49612 8.723235,-3.35763 13.74579,-6.09 22.93691,-15.56407 25.12844,-25.902018 0.52794,-2.490402 0.68654,-8.507615 0.22424,-8.507615 -0.40743,0 -2.80573,2.587084 -5.40794,5.833631 -7.42055,9.257976 -14.8693,13.617442 -25.648962,15.011342 -4.258734,0.55069 -5.627216,0.18595 -8.109058,-2.16127 -5.414964,-5.12125 -9.32822,-20.023349 -10.569673,-40.25046 -0.113381,-1.847316 -0.28974,-4.273576 -0.39191,-5.391689 l -0.185761,-2.032932 h 1.078214 c 0.802581,0 1.078218,0.162688 1.078218,0.636396 0,1.060342 0.758181,1.484924 2.65165,1.484924 1.856262,0 2.651651,-0.425049 2.651651,-1.41702 0,-0.377974 0.493472,-0.680113 1.472479,-0.901562 1.874589,-0.424023 2.930869,-1.773052 2.930869,-3.743172 0,-1.172302 -0.210053,-1.622909 -1.146591,-2.45971 -0.722172,-0.645256 -1.537141,-1.024477 -2.201676,-1.024477 -0.780303,0 -1.055081,-0.165739 -1.055081,-0.636396 0,-1.060342 -0.758181,-1.484924 -2.651651,-1.484924 -1.893469,0 -2.65165,0.424582 -2.65165,1.484924 0,0.466839 -0.273756,0.636396 -1.027483,0.636396 -0.963588,0 -1.042466,-0.108923 -1.268373,-1.751472 -0.284935,-2.071717 -0.151158,-2.363451 1.222058,-2.665061 1.727744,-0.379475 5.204196,-2.864358 6.531789,-4.668764 2.088139,-2.838102 2.803265,-5.099892 2.828487,-8.945926 0.02012,-3.066204 -0.07606,-3.565802 -1.104034,-5.735813 -1.500746,-3.167996 -3.882872,-5.655196 -6.784332,-7.08358 -2.216628,-1.091243 -2.5223,-1.145966 -6.401084,-1.145966 -3.762169,0 -4.230136,0.07696 -6.126579,1.007573 -8.783189,4.310035 -10.87649,15.871707 -4.159541,22.973889 1.54145,1.629857 4.007793,3.200182 6.124432,3.89944 0.49005,0.161892 0.618718,0.611096 0.618718,2.160042 v 1.955638 H 70.15887 c -0.955903,0 -1.237437,-0.144787 -1.237437,-0.636396 0,-1.07097 -0.763502,-1.484924 -2.738805,-1.484924 -1.717736,0 -1.944349,0.09421 -2.482659,1.032163 -0.356004,0.620306 -0.987899,1.111272 -1.583587,1.230409 -0.545162,0.109032 -1.384883,0.591919 -1.866048,1.073084 -1.855317,1.85532 -0.719661,5.551891 1.864422,6.068708 0.597353,0.119473 1.228799,0.609714 1.585213,1.230734 0.53831,0.937948 0.764923,1.032163 2.482659,1.032163 1.975303,0 2.738805,-0.413954 2.738805,-1.484924 0,-0.471403 0.274986,-0.636396 1.06066,-0.636396 1.258689,0 1.24076,-0.187408 0.693399,7.247845 -1.968433,26.738942 -6.925446,41.144976 -14.715634,42.766466 -1.383674,0.28801 -5.927917,-0.3135 -9.564539,-1.26602 -8.026944,-2.10245 -13.716821,-6.07003 -20.273508,-14.136804 -1.517928,-1.867525 -3.274007,-3.909635 -3.902397,-4.538027 -1.029525,-1.029526 -1.176638,-1.08158 -1.487389,-0.5263 -0.467676,0.835691 -0.08848,6.192477 0.636375,8.989767 3.09081,11.927824 14.550214,21.662824 32.880567,27.932724 5.776125,1.97573 9.293239,3.606 11.886819,5.50987 2.359696,1.73217 6.712879,6.45356 7.746199,8.40139 0.479524,0.90391 0.951688,1.64017 1.049247,1.63614 0.09756,-0.004 0.779515,-0.95184 1.51545,-2.10622 z"
       id="path1287"
       transform="scale(0.26458333)" />
  </g>
</svg>
