<?xml version="1.0" encoding="UTF-8" standalone="no"?>
<svg
   xmlns:dc="http://purl.org/dc/elements/1.1/"
   xmlns:cc="http://creativecommons.org/ns#"
   xmlns:rdf="http://www.w3.org/1999/02/22-rdf-syntax-ns#"
   xmlns:svg="http://www.w3.org/2000/svg"
   xmlns="http://www.w3.org/2000/svg"
   xmlns:sodipodi="http://sodipodi.sourceforge.net/DTD/sodipodi-0.dtd"
   xmlns:inkscape="http://www.inkscape.org/namespaces/inkscape"
   width="500"
   height="150"
   viewBox="0 0 132.29166 39.687501"
   version="1.1"
   id="svg8"
   inkscape:version="1.0.2-2 (e86c870879, 2021-01-15)"
   sodipodi:docname="logo_black_name.svg">
  <defs
     id="defs2">
    <inkscape:path-effect
       effect="spiro"
       id="path-effect899"
       is_visible="true"
       lpeversion="1" />
  </defs>
  <sodipodi:namedview
     id="base"
     pagecolor="#ffffff"
     bordercolor="#666666"
     borderopacity="1.0"
     inkscape:pageopacity="0.0"
     inkscape:pageshadow="2"
     inkscape:zoom="1.4142136"
     inkscape:cx="190.24921"
     inkscape:cy="250.56557"
     inkscape:document-units="mm"
     inkscape:current-layer="layer1"
     inkscape:document-rotation="0"
     showgrid="false"
     units="px"
     inkscape:window-width="1920"
     inkscape:window-height="1018"
     inkscape:window-x="-6"
     inkscape:window-y="-6"
     inkscape:window-maximized="1" />
  <metadata
     id="metadata5">
    <rdf:RDF>
      <cc:Work
         rdf:about="">
        <dc:format>image/svg+xml</dc:format>
        <dc:type
           rdf:resource="http://purl.org/dc/dcmitype/StillImage" />
        <dc:title />
      </cc:Work>
    </rdf:RDF>
  </metadata>
  <g
     inkscape:label="Layer 1"
     inkscape:groupmode="layer"
     id="layer1">
    <path
       id="path24"
       style="fill:#000000;fill-opacity:1;stroke:none;stroke-width:7.24887;stroke-miterlimit:4;stroke-dasharray:none;stroke-opacity:1"
       d="M 75,0 A 74.999994,74.999994 0 0 0 0,75 74.999994,74.999994 0 0 0 75,150 74.999994,74.999994 0 0 0 150,75 74.999994,74.999994 0 0 0 75,0 Z m 0,15 c 7.828951,0 14.232422,6.40347 14.232422,14.232422 0,6.636251 -4.607218,12.226993 -10.777344,13.78125 0.01121,1.364807 0.02402,2.76435 0.05664,4.341797 h 2.519531 v -0.664063 a 1.4623359,1.4623359 0 0 1 1.460938,-1.46289 h 2.236328 a 1.4623359,1.4623359 0 0 1 1.46289,1.46289 v 0.664063 h 0.863282 a 3.4999937,3.4999937 0 0 1 3.498046,3.505859 3.4999937,3.4999937 0 0 1 -3.498046,3.498047 h -0.863282 v 0.724609 a 1.4623359,1.4623359 0 0 1 -1.46289,1.460938 H 82.492188 A 1.4623359,1.4623359 0 0 1 81.03125,55.083984 v -0.724609 h -2.294922 c 0.90532,21.350253 4.400804,51.603025 17.083984,50.527345 22.508558,-1.909 27.304538,-16.387185 33.226568,-21.160158 0,0 5.6831,25.329238 -36.220708,38.130858 C 79.816437,125.8319 75,136.5 75,136.5 75,136.5 70.183563,125.8319 57.173828,121.85742 15.270031,109.0558 20.953125,83.726562 20.953125,83.726562 26.875144,88.499535 31.671134,102.97772 54.179688,104.88672 66.862867,105.9624 70.358352,75.709628 71.263672,54.359375 h -2.494141 v 0.724609 a 1.4623359,1.4623359 0 0 1 -1.460937,1.460938 h -2.236328 a 1.4623359,1.4623359 0 0 1 -1.462891,-1.460938 v -0.724609 h -0.664063 a 3.4999937,3.4999937 0 0 1 -3.498046,-3.498047 3.4999937,3.4999937 0 0 1 3.498046,-3.505859 h 0.664063 v -0.664063 a 1.4623359,1.4623359 0 0 1 1.462891,-1.46289 h 2.236328 a 1.4623359,1.4623359 0 0 1 1.460937,1.46289 v 0.664063 h 2.71875 c 0.03262,-1.577447 0.04543,-2.97699 0.05664,-4.341797 C 65.374796,41.459415 60.767578,35.868673 60.767578,29.232422 60.767578,21.40347 67.171049,15 75,15 Z m 0,4.998047 c -5.126751,0 -9.226562,4.107623 -9.226562,9.234375 0,3.905516 2.38105,7.209116 5.78125,8.564453 C 71.537579,35.356346 71.5,33.90625 71.5,33.90625 h 0.01172 A 3.5,3.5 0 0 1 71.5,33.632812 a 3.5,3.5 0 0 1 3.5,-3.5 3.5,3.5 0 0 1 3.5,3.5 3.5,3.5 0 0 1 -0.01172,0.273438 H 78.5 c 0,0 -0.03758,1.450096 -0.05469,3.890625 3.4002,-1.355337 5.78125,-4.658937 5.78125,-8.564453 C 84.226563,24.10567 80.126751,19.998047 75,19.998047 Z"
       transform="scale(0.26458333)" />
    <g
       aria-label="NEWPORT"
       id="text848"
       style="font-size:16.9333px;line-height:1.25;font-family:Roboto;-inkscape-font-specification:Roboto;stroke-width:0.264583">
      <path
         d="m 56.876894,25.863008 h -2.009176 l -5.332997,-8.673355 -0.04961,0.01654 v 8.656818 H 47.475936 V 13.824491 h 2.009176 l 5.332997,8.673355 0.04961,-0.01654 v -8.656818 h 2.009176 z"
         style="font-size:16.9333px;stroke-width:0.264583"
         id="path846" />
      <path
         d="m 66.129024,20.447329 h -4.712881 v 3.811646 h 5.556239 v 1.604033 H 59.406967 V 13.824491 h 7.507537 v 1.612301 h -5.498361 v 3.398236 h 4.712881 z"
         style="font-size:16.9333px;stroke-width:0.264583"
         id="path848" />
      <path
         d="m 78.068323,22.506114 h 0.04961 l 1.769397,-8.681623 h 2.116663 l -2.860802,12.038517 h -1.827275 l -2.40605,-8.565868 h -0.04961 l -2.414319,8.565868 H 70.610395 L 67.757862,13.824491 h 2.108394 l 1.785934,8.673355 h 0.04961 l 2.290295,-8.673355 h 1.769398 z"
         style="font-size:16.9333px;stroke-width:0.264583"
         id="path850" />
      <path
         d="m 85.517983,21.298955 v 4.564053 H 83.508807 V 13.824491 h 4.613663 q 1.992639,0 3.117116,1.033526 1.132745,1.025259 1.132745,2.703706 0,1.694983 -1.132745,2.720242 -1.124477,1.01699 -3.117116,1.01699 z m 0,-1.612302 h 2.604487 q 1.116209,0 1.678447,-0.595311 0.562239,-0.595311 0.562239,-1.513083 0,-0.917771 -0.562239,-1.529619 -0.562238,-0.611848 -1.678447,-0.611848 h -2.604487 z"
         style="font-size:16.9333px;stroke-width:0.264583"
         id="path852" />
      <path
         d="m 103.74939,20.926885 q 0,2.207613 -1.38906,3.662819 -1.38079,1.446937 -3.59667,1.446937 -2.158003,0 -3.51399,-1.446937 -1.355987,-1.455206 -1.355987,-3.662819 v -2.166271 q 0,-2.199345 1.347718,-3.65455 1.355987,-1.455206 3.522259,-1.455206 2.20761,0 3.59667,1.455206 1.38906,1.455205 1.38906,3.65455 z m -2.00917,-2.182808 q 0,-1.504815 -0.80202,-2.472195 -0.80202,-0.967381 -2.17454,-0.967381 -1.331182,0 -2.100126,0.967381 -0.760676,0.96738 -0.760676,2.472195 v 2.182808 q 0,1.521352 0.768944,2.497001 0.768944,0.967381 2.091858,0.967381 1.38079,0 2.17454,-0.967381 0.80202,-0.967381 0.80202,-2.497001 z"
         style="font-size:16.9333px;stroke-width:0.264583"
         id="path854" />
      <path
         d="m 107.89177,20.869008 v 4.994 h -2.00918 V 13.824491 h 4.14237 q 2.00918,0 3.10885,0.909503 1.09968,0.909503 1.09968,2.596219 0,0.934308 -0.48783,1.612301 -0.47956,0.669726 -1.4056,1.074868 1.01699,0.32246 1.46348,1.050063 0.45475,0.727603 0.45475,1.80247 v 1.000454 q 0,0.529166 0.13229,1.033527 0.13229,0.504361 0.43822,0.768944 v 0.190168 h -2.06706 q -0.33073,-0.272851 -0.42168,-0.851625 -0.0909,-0.578775 -0.0909,-1.15755 v -0.967381 q 0,-0.92604 -0.53743,-1.471742 -0.52917,-0.545702 -1.44694,-0.545702 z m 0,-1.612302 h 2.02571 q 1.20716,0 1.76113,-0.46302 0.55397,-0.463019 0.55397,-1.413864 0,-0.909503 -0.5457,-1.422133 -0.54571,-0.520897 -1.66192,-0.520897 h -2.13319 z"
         style="font-size:16.9333px;stroke-width:0.264583"
         id="path856" />
      <path
         d="m 124.65143,15.436792 h -3.72069 v 10.426216 h -2.00918 V 15.436792 h -3.66282 v -1.612301 h 9.39269 z"
         style="font-size:16.9333px;stroke-width:0.264583"
         id="path858" />
    </g>
  </g>
  <g
     inkscape:groupmode="layer"
     id="layer2"
     inkscape:label="Layer 2">
    <path
       style="fill:none;stroke:none;stroke-width:0.264583px;stroke-linecap:butt;stroke-linejoin:miter;stroke-opacity:1"
       d="m 18.917708,8.9710285 c 0,0 0.661458,18.7440755 -3.96875,17.9833985 -4.630208,-0.760677 -7.8052081,-4.167188 -7.8052081,-4.167188 0,0 0.9260417,3.604948 4.9278641,6.482292 4.001823,2.877344 7.176823,5.126302 7.772136,6.846094"
       id="path1126" />
  </g>
  <g
     inkscape:groupmode="layer"
     id="layer3"
     inkscape:label="Layer 3">
    <path
       style="fill:none;fill-opacity:1;stroke:none;stroke-width:0.46068;stroke-linecap:square;stroke-linejoin:round;stroke-miterlimit:4;stroke-dasharray:none;stroke-opacity:1"
       d="m 70.335646,142.75252 c -14.932384,-1.3979 -27.410382,-6.37964 -38.331361,-15.3035 -3.46786,-2.83369 -9.506229,-9.21924 -11.972609,-12.66099 C 5.28596,94.210915 3.0324089,67.815482 14.09254,45.224014 19.603074,33.968176 27.398827,25.175735 38.162288,18.076947 46.329074,12.690735 55.630601,9.2419805 66.093006,7.7209948 72.053124,6.8545348 82.341029,7.1815947 88.246431,8.4252681 102.35285,11.396069 114.00798,17.83964 123.90113,28.13706 c 9.52764,9.916969 15.55911,21.775808 18.04111,35.47173 0.87769,4.843187 1.06716,14.6508 0.38249,19.79899 -2.79223,20.99535 -14.52544,38.95715 -32.56788,49.85659 -11.419252,6.89836 -27.007559,10.65026 -39.421204,9.48815 z m 6.111036,-8.24851 c 2.665917,-4.18175 7.11628,-8.2103 11.505455,-10.41496 1.035851,-0.5203 4.217832,-1.75206 7.071068,-2.73723 2.853236,-0.98518 6.778695,-2.49612 8.723235,-3.35763 13.74579,-6.09 22.93691,-15.56407 25.12844,-25.902018 0.52794,-2.490402 0.68654,-8.507615 0.22424,-8.507615 -0.40743,0 -2.80573,2.587084 -5.40794,5.833631 -7.42055,9.257976 -14.8693,13.617442 -25.648962,15.011342 -4.258734,0.55069 -5.627216,0.18595 -8.109058,-2.16127 -5.414964,-5.12125 -9.32822,-20.023349 -10.569673,-40.25046 -0.113381,-1.847316 -0.28974,-4.273576 -0.39191,-5.391689 l -0.185761,-2.032932 h 1.078214 c 0.802581,0 1.078218,0.162688 1.078218,0.636396 0,1.060342 0.758181,1.484924 2.65165,1.484924 1.856262,0 2.651651,-0.425049 2.651651,-1.41702 0,-0.377974 0.493472,-0.680113 1.472479,-0.901562 1.874589,-0.424023 2.930869,-1.773052 2.930869,-3.743172 0,-1.172302 -0.210053,-1.622909 -1.146591,-2.45971 -0.722172,-0.645256 -1.537141,-1.024477 -2.201676,-1.024477 -0.780303,0 -1.055081,-0.165739 -1.055081,-0.636396 0,-1.060342 -0.758181,-1.484924 -2.651651,-1.484924 -1.893469,0 -2.65165,0.424582 -2.65165,1.484924 0,0.466839 -0.273756,0.636396 -1.027483,0.636396 -0.963588,0 -1.042466,-0.108923 -1.268373,-1.751472 -0.284935,-2.071717 -0.151158,-2.363451 1.222058,-2.665061 1.727744,-0.379475 5.204196,-2.864358 6.531789,-4.668764 2.088139,-2.838102 2.803265,-5.099892 2.828487,-8.945926 0.02012,-3.066204 -0.07606,-3.565802 -1.104034,-5.735813 -1.500746,-3.167996 -3.882872,-5.655196 -6.784332,-7.08358 -2.216628,-1.091243 -2.5223,-1.145966 -6.401084,-1.145966 -3.762169,0 -4.230136,0.07696 -6.126579,1.007573 -8.783189,4.310035 -10.87649,15.871707 -4.159541,22.973889 1.54145,1.629857 4.007793,3.200182 6.124432,3.89944 0.49005,0.161892 0.618718,0.611096 0.618718,2.160042 v 1.955638 H 70.15887 c -0.955903,0 -1.237437,-0.144787 -1.237437,-0.636396 0,-1.07097 -0.763502,-1.484924 -2.738805,-1.484924 -1.717736,0 -1.944349,0.09421 -2.482659,1.032163 -0.356004,0.620306 -0.987899,1.111272 -1.583587,1.230409 -0.545162,0.109032 -1.384883,0.591919 -1.866048,1.073084 -1.855317,1.85532 -0.719661,5.551891 1.864422,6.068708 0.597353,0.119473 1.228799,0.609714 1.585213,1.230734 0.53831,0.937948 0.764923,1.032163 2.482659,1.032163 1.975303,0 2.738805,-0.413954 2.738805,-1.484924 0,-0.471403 0.274986,-0.636396 1.06066,-0.636396 1.258689,0 1.24076,-0.187408 0.693399,7.247845 -1.968433,26.738942 -6.925446,41.144976 -14.715634,42.766466 -1.383674,0.28801 -5.927917,-0.3135 -9.564539,-1.26602 -8.026944,-2.10245 -13.716821,-6.07003 -20.273508,-14.136804 -1.517928,-1.867525 -3.274007,-3.909635 -3.902397,-4.538027 -1.029525,-1.029526 -1.176638,-1.08158 -1.487389,-0.5263 -0.467676,0.835691 -0.08848,6.192477 0.636375,8.989767 3.09081,11.927824 14.550214,21.662824 32.880567,27.932724 5.776125,1.97573 9.293239,3.606 11.886819,5.50987 2.359696,1.73217 6.712879,6.45356 7.746199,8.40139 0.479524,0.90391 0.951688,1.64017 1.049247,1.63614 0.09756,-0.004 0.779515,-0.95184 1.51545,-2.10622 z"
       id="path1287"
       transform="scale(0.26458333)" />
  </g>
</svg>
